<mxfile host="app.diagrams.net" modified="2022-12-05T07:15:22.664Z" agent="5.0 (Macintosh; Intel Mac OS X 10_15_7) AppleWebKit/537.36 (KHTML, like Gecko) Chrome/107.0.0.0 Safari/537.36" version="20.6.0" etag="QvRfymomZZeAlb2-yF2f" type="github">
  <diagram id="j24lxPzAHNOHDQMK0Ehx" name="第 1 页">
    <mxGraphModel dx="2065" dy="1921" grid="1" gridSize="10" guides="1" tooltips="1" connect="1" arrows="1" fold="1" page="1" pageScale="1" pageWidth="827" pageHeight="1169" math="0" shadow="0">
      <root>
        <mxCell id="0" />
        <mxCell id="1" parent="0" />
        <mxCell id="zK-XE1m4WU7QKJRPk60D-1" value="&lt;span style=&quot;color: rgba(0, 0, 0, 0); font-family: monospace; font-size: 0px; text-align: start;&quot;&gt;%3CmxGraphModel%3E%3Croot%3E%3CmxCell%20id%3D%220%22%2F%3E%3CmxCell%20id%3D%221%22%20parent%3D%220%22%2F%3E%3CmxCell%20id%3D%222%22%20value%3D%22%26lt%3Bspan%20style%3D%26quot%3Bfont-size%3A%2014px%26quot%3B%26gt%3B%26lt%3Bb%26gt%3B%E7%BB%9F%E4%B8%80%E7%94%BB%E5%83%8FSDK%26lt%3B%2Fb%26gt%3B%26lt%3B%2Fspan%26gt%3B%22%20style%3D%22text%3Bhtml%3D1%3BstrokeColor%3Dnone%3BfillColor%3Dnone%3Balign%3Dcenter%3BverticalAlign%3Dmiddle%3BwhiteSpace%3Dwrap%3Brounded%3D0%3Bdashed%3D1%3BfontSize%3D18%3B%22%20vertex%3D%221%22%20parent%3D%221%22%3E%3CmxGeometry%20x%3D%22141%22%20y%3D%22300%22%20width%3D%22350%22%20height%3D%2240%22%20as%3D%22geometry%22%2F%3E%3C%2FmxCell%3E%3C%2Froot%3E%3C%2FmxGraphModel%3E&lt;/span&gt;" style="rounded=0;whiteSpace=wrap;html=1;" vertex="1" parent="1">
          <mxGeometry x="-160" y="250" width="420" height="90" as="geometry" />
        </mxCell>
        <mxCell id="zK-XE1m4WU7QKJRPk60D-3" value="fast服务" style="rounded=0;whiteSpace=wrap;html=1;" vertex="1" parent="1">
          <mxGeometry x="-160" y="110" width="120" height="60" as="geometry" />
        </mxCell>
        <mxCell id="zK-XE1m4WU7QKJRPk60D-4" value="画像服务" style="rounded=0;whiteSpace=wrap;html=1;" vertex="1" parent="1">
          <mxGeometry x="-14" y="110" width="120" height="60" as="geometry" />
        </mxCell>
        <mxCell id="zK-XE1m4WU7QKJRPk60D-6" value="判存服务" style="rounded=0;whiteSpace=wrap;html=1;" vertex="1" parent="1">
          <mxGeometry x="140" y="110" width="120" height="60" as="geometry" />
        </mxCell>
        <mxCell id="zK-XE1m4WU7QKJRPk60D-7" value="" style="rounded=0;whiteSpace=wrap;html=1;fillColor=#d5e8d4;strokeColor=#82b366;" vertex="1" parent="1">
          <mxGeometry x="-130" y="148" width="60" height="20" as="geometry" />
        </mxCell>
        <mxCell id="zK-XE1m4WU7QKJRPk60D-8" value="" style="rounded=0;whiteSpace=wrap;html=1;fillColor=#d5e8d4;strokeColor=#82b366;" vertex="1" parent="1">
          <mxGeometry x="16" y="148" width="60" height="20" as="geometry" />
        </mxCell>
        <mxCell id="zK-XE1m4WU7QKJRPk60D-10" value="" style="rounded=0;whiteSpace=wrap;html=1;fillColor=#d5e8d4;strokeColor=#82b366;" vertex="1" parent="1">
          <mxGeometry x="170" y="148" width="60" height="20" as="geometry" />
        </mxCell>
        <mxCell id="zK-XE1m4WU7QKJRPk60D-11" value="" style="endArrow=classic;html=1;rounded=0;entryX=0.5;entryY=1;entryDx=0;entryDy=0;exitX=0.5;exitY=0;exitDx=0;exitDy=0;" edge="1" parent="1" target="zK-XE1m4WU7QKJRPk60D-7" source="zK-XE1m4WU7QKJRPk60D-1">
          <mxGeometry width="50" height="50" relative="1" as="geometry">
            <mxPoint x="140" y="280" as="sourcePoint" />
            <mxPoint x="-100" y="250" as="targetPoint" />
          </mxGeometry>
        </mxCell>
        <mxCell id="zK-XE1m4WU7QKJRPk60D-12" value="集成" style="edgeLabel;html=1;align=center;verticalAlign=middle;resizable=0;points=[];" vertex="1" connectable="0" parent="zK-XE1m4WU7QKJRPk60D-11">
          <mxGeometry x="0.0265" y="3" relative="1" as="geometry">
            <mxPoint y="-1" as="offset" />
          </mxGeometry>
        </mxCell>
        <mxCell id="zK-XE1m4WU7QKJRPk60D-13" value="" style="endArrow=classic;html=1;rounded=0;entryX=0.5;entryY=1;entryDx=0;entryDy=0;exitX=0.5;exitY=0;exitDx=0;exitDy=0;" edge="1" parent="1" target="zK-XE1m4WU7QKJRPk60D-8" source="zK-XE1m4WU7QKJRPk60D-1">
          <mxGeometry width="50" height="50" relative="1" as="geometry">
            <mxPoint x="140" y="280" as="sourcePoint" />
            <mxPoint x="-90" y="178" as="targetPoint" />
          </mxGeometry>
        </mxCell>
        <mxCell id="zK-XE1m4WU7QKJRPk60D-14" value="集成" style="edgeLabel;html=1;align=center;verticalAlign=middle;resizable=0;points=[];" vertex="1" connectable="0" parent="zK-XE1m4WU7QKJRPk60D-13">
          <mxGeometry x="0.1217" relative="1" as="geometry">
            <mxPoint x="-1" as="offset" />
          </mxGeometry>
        </mxCell>
        <mxCell id="zK-XE1m4WU7QKJRPk60D-17" value="" style="endArrow=classic;html=1;rounded=0;entryX=0.5;entryY=1;entryDx=0;entryDy=0;exitX=0.5;exitY=0;exitDx=0;exitDy=0;" edge="1" parent="1" target="zK-XE1m4WU7QKJRPk60D-10" source="zK-XE1m4WU7QKJRPk60D-1">
          <mxGeometry width="50" height="50" relative="1" as="geometry">
            <mxPoint x="140" y="280" as="sourcePoint" />
            <mxPoint x="-70" y="198" as="targetPoint" />
          </mxGeometry>
        </mxCell>
        <mxCell id="zK-XE1m4WU7QKJRPk60D-18" value="集成" style="edgeLabel;html=1;align=center;verticalAlign=middle;resizable=0;points=[];" vertex="1" connectable="0" parent="zK-XE1m4WU7QKJRPk60D-17">
          <mxGeometry x="-0.0473" y="-2" relative="1" as="geometry">
            <mxPoint as="offset" />
          </mxGeometry>
        </mxCell>
        <mxCell id="zK-XE1m4WU7QKJRPk60D-19" value="&lt;span style=&quot;font-size: 14px&quot;&gt;&lt;b&gt;画像SDK（JAVA，GO）&lt;/b&gt;&lt;/span&gt;" style="text;html=1;strokeColor=none;fillColor=none;align=center;verticalAlign=middle;whiteSpace=wrap;rounded=0;dashed=1;fontSize=18;" vertex="1" parent="1">
          <mxGeometry x="-130" y="250" width="350" height="40" as="geometry" />
        </mxCell>
        <mxCell id="zK-XE1m4WU7QKJRPk60D-22" value="画像decode" style="rounded=0;whiteSpace=wrap;html=1;fillColor=#f5f5f5;fontColor=#333333;strokeColor=#666666;flipH=1;flipV=1;" vertex="1" parent="1">
          <mxGeometry x="-130" y="287" width="100" height="40" as="geometry" />
        </mxCell>
        <mxCell id="zK-XE1m4WU7QKJRPk60D-21" value="存储路由" style="rounded=0;whiteSpace=wrap;html=1;fillColor=#f5f5f5;fontColor=#333333;strokeColor=#666666;flipH=1;flipV=1;" vertex="1" parent="1">
          <mxGeometry x="-4" y="287" width="100" height="40" as="geometry" />
        </mxCell>
        <mxCell id="zK-XE1m4WU7QKJRPk60D-23" value="监控&amp;amp;日志" style="rounded=0;whiteSpace=wrap;html=1;fillColor=#f5f5f5;fontColor=#333333;strokeColor=#666666;flipH=1;flipV=1;" vertex="1" parent="1">
          <mxGeometry x="130" y="287" width="100" height="40" as="geometry" />
        </mxCell>
        <mxCell id="zK-XE1m4WU7QKJRPk60D-41" value="" style="endArrow=classic;html=1;rounded=0;fontSize=14;exitX=0;exitY=0;exitDx=0;exitDy=0;entryX=0.5;entryY=1;entryDx=0;entryDy=0;" edge="1" parent="1" source="zK-XE1m4WU7QKJRPk60D-39" target="zK-XE1m4WU7QKJRPk60D-1">
          <mxGeometry width="50" height="50" relative="1" as="geometry">
            <mxPoint x="30" y="430" as="sourcePoint" />
            <mxPoint x="80" y="380" as="targetPoint" />
          </mxGeometry>
        </mxCell>
        <mxCell id="zK-XE1m4WU7QKJRPk60D-42" value="读取" style="edgeLabel;html=1;align=center;verticalAlign=middle;resizable=0;points=[];fontSize=14;" vertex="1" connectable="0" parent="zK-XE1m4WU7QKJRPk60D-41">
          <mxGeometry x="0.0672" y="-3" relative="1" as="geometry">
            <mxPoint as="offset" />
          </mxGeometry>
        </mxCell>
        <mxCell id="zK-XE1m4WU7QKJRPk60D-46" value="" style="group" vertex="1" connectable="0" parent="1">
          <mxGeometry x="140" y="480" width="471" height="240" as="geometry" />
        </mxCell>
        <mxCell id="zK-XE1m4WU7QKJRPk60D-44" value="" style="rounded=0;whiteSpace=wrap;html=1;dashed=1;fontSize=14;fillColor=#f9f7ed;strokeColor=#36393d;" vertex="1" parent="zK-XE1m4WU7QKJRPk60D-46">
          <mxGeometry x="1" width="470" height="240" as="geometry" />
        </mxCell>
        <mxCell id="zK-XE1m4WU7QKJRPk60D-26" value="keewidb" style="shape=cylinder3;whiteSpace=wrap;html=1;boundedLbl=1;backgroundOutline=1;size=15;dashed=1;" vertex="1" parent="zK-XE1m4WU7QKJRPk60D-46">
          <mxGeometry x="385" y="94" width="60" height="80" as="geometry" />
        </mxCell>
        <mxCell id="zK-XE1m4WU7QKJRPk60D-27" value="x-store" style="shape=cylinder3;whiteSpace=wrap;html=1;boundedLbl=1;backgroundOutline=1;size=15;dashed=1;" vertex="1" parent="zK-XE1m4WU7QKJRPk60D-46">
          <mxGeometry x="240" y="94" width="60" height="80" as="geometry" />
        </mxCell>
        <mxCell id="zK-XE1m4WU7QKJRPk60D-28" value="Redis" style="shape=cylinder3;whiteSpace=wrap;html=1;boundedLbl=1;backgroundOutline=1;size=15;dashed=1;" vertex="1" parent="zK-XE1m4WU7QKJRPk60D-46">
          <mxGeometry x="96" y="94" width="60" height="80" as="geometry" />
        </mxCell>
        <mxCell id="zK-XE1m4WU7QKJRPk60D-29" value="Redis" style="shape=cylinder3;whiteSpace=wrap;html=1;boundedLbl=1;backgroundOutline=1;size=15;" vertex="1" parent="zK-XE1m4WU7QKJRPk60D-46">
          <mxGeometry x="66" y="39" width="60" height="80" as="geometry" />
        </mxCell>
        <mxCell id="zK-XE1m4WU7QKJRPk60D-30" value="x-store" style="shape=cylinder3;whiteSpace=wrap;html=1;boundedLbl=1;backgroundOutline=1;size=15;" vertex="1" parent="zK-XE1m4WU7QKJRPk60D-46">
          <mxGeometry x="206" y="39" width="60" height="80" as="geometry" />
        </mxCell>
        <mxCell id="zK-XE1m4WU7QKJRPk60D-31" value="keewidb" style="shape=cylinder3;whiteSpace=wrap;html=1;boundedLbl=1;backgroundOutline=1;size=15;" vertex="1" parent="zK-XE1m4WU7QKJRPk60D-46">
          <mxGeometry x="355" y="39" width="60" height="80" as="geometry" />
        </mxCell>
        <mxCell id="zK-XE1m4WU7QKJRPk60D-32" value="&lt;font style=&quot;font-size: 18px&quot;&gt;&lt;b&gt;GZ&lt;/b&gt;&lt;/font&gt;" style="text;html=1;strokeColor=none;fillColor=none;align=center;verticalAlign=middle;whiteSpace=wrap;rounded=0;dashed=1;" vertex="1" parent="zK-XE1m4WU7QKJRPk60D-46">
          <mxGeometry y="64" width="60" height="30" as="geometry" />
        </mxCell>
        <mxCell id="zK-XE1m4WU7QKJRPk60D-33" value="&lt;b&gt;&lt;font style=&quot;font-size: 18px&quot;&gt;SH&lt;/font&gt;&lt;/b&gt;" style="text;html=1;strokeColor=none;fillColor=none;align=center;verticalAlign=middle;whiteSpace=wrap;rounded=0;dashed=1;" vertex="1" parent="zK-XE1m4WU7QKJRPk60D-46">
          <mxGeometry x="1" y="129.5" width="60" height="30" as="geometry" />
        </mxCell>
        <mxCell id="zK-XE1m4WU7QKJRPk60D-34" value="。&lt;br&gt;。&lt;br&gt;。" style="text;html=1;strokeColor=none;fillColor=none;align=center;verticalAlign=middle;whiteSpace=wrap;rounded=0;dashed=1;" vertex="1" parent="zK-XE1m4WU7QKJRPk60D-46">
          <mxGeometry x="96" y="190" width="60" height="30" as="geometry" />
        </mxCell>
        <mxCell id="zK-XE1m4WU7QKJRPk60D-35" value="。&lt;br&gt;。&lt;br&gt;。" style="text;html=1;strokeColor=none;fillColor=none;align=center;verticalAlign=middle;whiteSpace=wrap;rounded=0;dashed=1;" vertex="1" parent="zK-XE1m4WU7QKJRPk60D-46">
          <mxGeometry x="240" y="190" width="60" height="30" as="geometry" />
        </mxCell>
        <mxCell id="zK-XE1m4WU7QKJRPk60D-36" value="。&lt;br&gt;。&lt;br&gt;。" style="text;html=1;strokeColor=none;fillColor=none;align=center;verticalAlign=middle;whiteSpace=wrap;rounded=0;dashed=1;" vertex="1" parent="zK-XE1m4WU7QKJRPk60D-46">
          <mxGeometry x="385" y="190" width="60" height="30" as="geometry" />
        </mxCell>
        <mxCell id="zK-XE1m4WU7QKJRPk60D-37" value="&lt;b&gt;&lt;font style=&quot;font-size: 18px&quot;&gt;TJ&lt;/font&gt;&lt;/b&gt;" style="text;html=1;strokeColor=none;fillColor=none;align=center;verticalAlign=middle;whiteSpace=wrap;rounded=0;dashed=1;" vertex="1" parent="zK-XE1m4WU7QKJRPk60D-46">
          <mxGeometry x="2" y="190" width="60" height="30" as="geometry" />
        </mxCell>
        <mxCell id="zK-XE1m4WU7QKJRPk60D-39" value="&lt;b&gt;&lt;font style=&quot;font-size: 14px;&quot;&gt;KV存储&lt;/font&gt;&lt;/b&gt;" style="text;html=1;strokeColor=none;fillColor=none;align=center;verticalAlign=middle;whiteSpace=wrap;rounded=0;dashed=1;" vertex="1" parent="zK-XE1m4WU7QKJRPk60D-46">
          <mxGeometry x="126" width="230" height="30" as="geometry" />
        </mxCell>
        <mxCell id="zK-XE1m4WU7QKJRPk60D-49" value="" style="rounded=0;whiteSpace=wrap;html=1;fontSize=14;" vertex="1" parent="1">
          <mxGeometry x="130" y="-158" width="430" height="123" as="geometry" />
        </mxCell>
        <mxCell id="zK-XE1m4WU7QKJRPk60D-50" value="" style="rounded=0;whiteSpace=wrap;html=1;fontSize=14;fillColor=#ffcccc;strokeColor=#36393d;" vertex="1" parent="1">
          <mxGeometry x="496" y="290" width="454" height="100" as="geometry" />
        </mxCell>
        <mxCell id="zK-XE1m4WU7QKJRPk60D-51" value="" style="endArrow=classic;html=1;rounded=0;fontSize=14;exitX=0.5;exitY=1;exitDx=0;exitDy=0;entryX=0.75;entryY=0;entryDx=0;entryDy=0;" edge="1" parent="1" source="zK-XE1m4WU7QKJRPk60D-50" target="zK-XE1m4WU7QKJRPk60D-44">
          <mxGeometry width="50" height="50" relative="1" as="geometry">
            <mxPoint x="276.00000000000045" y="490" as="sourcePoint" />
            <mxPoint x="60" y="350" as="targetPoint" />
          </mxGeometry>
        </mxCell>
        <mxCell id="zK-XE1m4WU7QKJRPk60D-52" value="写入/删除" style="edgeLabel;html=1;align=center;verticalAlign=middle;resizable=0;points=[];fontSize=14;" vertex="1" connectable="0" parent="zK-XE1m4WU7QKJRPk60D-51">
          <mxGeometry x="0.0672" y="-3" relative="1" as="geometry">
            <mxPoint as="offset" />
          </mxGeometry>
        </mxCell>
        <mxCell id="zK-XE1m4WU7QKJRPk60D-59" value="" style="endArrow=classic;html=1;rounded=0;fontSize=14;exitX=0.25;exitY=1;exitDx=0;exitDy=0;entryX=0.25;entryY=0;entryDx=0;entryDy=0;" edge="1" parent="1" source="zK-XE1m4WU7QKJRPk60D-43" target="zK-XE1m4WU7QKJRPk60D-50">
          <mxGeometry width="50" height="50" relative="1" as="geometry">
            <mxPoint x="556.0000000000005" y="360" as="sourcePoint" />
            <mxPoint x="340" y="220" as="targetPoint" />
          </mxGeometry>
        </mxCell>
        <mxCell id="zK-XE1m4WU7QKJRPk60D-60" value="读取" style="edgeLabel;html=1;align=center;verticalAlign=middle;resizable=0;points=[];fontSize=14;" vertex="1" connectable="0" parent="zK-XE1m4WU7QKJRPk60D-59">
          <mxGeometry x="0.0672" y="-3" relative="1" as="geometry">
            <mxPoint as="offset" />
          </mxGeometry>
        </mxCell>
        <mxCell id="zK-XE1m4WU7QKJRPk60D-73" value="dqc" style="rounded=0;whiteSpace=wrap;html=1;fillColor=#f5f5f5;fontColor=#333333;strokeColor=#666666;flipH=1;flipV=1;" vertex="1" parent="1">
          <mxGeometry x="520" y="323.5" width="410" height="27" as="geometry" />
        </mxCell>
        <mxCell id="zK-XE1m4WU7QKJRPk60D-75" value="spark sinker" style="rounded=0;whiteSpace=wrap;html=1;fillColor=#f5f5f5;fontColor=#333333;strokeColor=#666666;flipH=1;flipV=1;" vertex="1" parent="1">
          <mxGeometry x="521" y="357.5" width="409" height="27" as="geometry" />
        </mxCell>
        <mxCell id="zK-XE1m4WU7QKJRPk60D-85" value="执行引擎" style="text;html=1;strokeColor=none;fillColor=none;align=center;verticalAlign=middle;whiteSpace=wrap;rounded=0;fontSize=14;" vertex="1" parent="1">
          <mxGeometry x="668.5" y="290" width="85" height="30" as="geometry" />
        </mxCell>
        <mxCell id="zK-XE1m4WU7QKJRPk60D-86" value="看板" style="rounded=0;whiteSpace=wrap;html=1;fontSize=14;fillColor=#f9f7ed;strokeColor=#36393d;" vertex="1" parent="1">
          <mxGeometry x="143" y="-130" width="130" height="40" as="geometry" />
        </mxCell>
        <mxCell id="zK-XE1m4WU7QKJRPk60D-87" value="trace" style="rounded=0;whiteSpace=wrap;html=1;fontSize=14;fillColor=#f9f7ed;strokeColor=#36393d;" vertex="1" parent="1">
          <mxGeometry x="283" y="-130" width="130" height="40" as="geometry" />
        </mxCell>
        <mxCell id="zK-XE1m4WU7QKJRPk60D-88" value="报警" style="rounded=0;whiteSpace=wrap;html=1;fontSize=14;fillColor=#f9f7ed;strokeColor=#36393d;" vertex="1" parent="1">
          <mxGeometry x="421" y="-130" width="130" height="40" as="geometry" />
        </mxCell>
        <mxCell id="zK-XE1m4WU7QKJRPk60D-89" value="" style="endArrow=classic;html=1;rounded=0;fontSize=14;dashed=1;entryX=0.5;entryY=1;entryDx=0;entryDy=0;exitX=1;exitY=0.5;exitDx=0;exitDy=0;" edge="1" parent="1" source="zK-XE1m4WU7QKJRPk60D-1" target="zK-XE1m4WU7QKJRPk60D-49">
          <mxGeometry width="50" height="50" relative="1" as="geometry">
            <mxPoint x="-110" y="470" as="sourcePoint" />
            <mxPoint x="-60" y="420" as="targetPoint" />
          </mxGeometry>
        </mxCell>
        <mxCell id="zK-XE1m4WU7QKJRPk60D-90" value="调用量/填充率" style="edgeLabel;html=1;align=center;verticalAlign=middle;resizable=0;points=[];fontSize=14;" vertex="1" connectable="0" parent="zK-XE1m4WU7QKJRPk60D-89">
          <mxGeometry x="-0.274" y="14" relative="1" as="geometry">
            <mxPoint x="13" y="19" as="offset" />
          </mxGeometry>
        </mxCell>
        <mxCell id="zK-XE1m4WU7QKJRPk60D-91" value="" style="endArrow=classic;html=1;rounded=0;fontSize=14;dashed=1;entryX=0.5;entryY=1;entryDx=0;entryDy=0;exitX=0;exitY=0.5;exitDx=0;exitDy=0;" edge="1" parent="1" source="zK-XE1m4WU7QKJRPk60D-50" target="zK-XE1m4WU7QKJRPk60D-49">
          <mxGeometry width="50" height="50" relative="1" as="geometry">
            <mxPoint x="270" y="305" as="sourcePoint" />
            <mxPoint x="330" as="targetPoint" />
          </mxGeometry>
        </mxCell>
        <mxCell id="zK-XE1m4WU7QKJRPk60D-93" value="更新周期/空值率/覆盖率" style="edgeLabel;html=1;align=center;verticalAlign=middle;resizable=0;points=[];fontSize=14;" vertex="1" connectable="0" parent="zK-XE1m4WU7QKJRPk60D-91">
          <mxGeometry x="-0.6654" y="-27" relative="1" as="geometry">
            <mxPoint x="-36" y="-26" as="offset" />
          </mxGeometry>
        </mxCell>
        <mxCell id="zK-XE1m4WU7QKJRPk60D-99" value="" style="endArrow=classic;html=1;rounded=0;fontSize=14;curved=1;exitX=0.25;exitY=0;exitDx=0;exitDy=0;entryX=0.5;entryY=1;entryDx=0;entryDy=0;dashed=1;" edge="1" parent="1" source="zK-XE1m4WU7QKJRPk60D-43" target="zK-XE1m4WU7QKJRPk60D-49">
          <mxGeometry width="50" height="50" relative="1" as="geometry">
            <mxPoint x="400" y="70" as="sourcePoint" />
            <mxPoint x="450" y="20" as="targetPoint" />
          </mxGeometry>
        </mxCell>
        <mxCell id="zK-XE1m4WU7QKJRPk60D-101" value="读取血缘/store/source等" style="edgeLabel;html=1;align=center;verticalAlign=middle;resizable=0;points=[];fontSize=14;" vertex="1" connectable="0" parent="zK-XE1m4WU7QKJRPk60D-99">
          <mxGeometry x="-0.038" y="1" relative="1" as="geometry">
            <mxPoint as="offset" />
          </mxGeometry>
        </mxCell>
        <mxCell id="zK-XE1m4WU7QKJRPk60D-43" value="" style="rounded=0;whiteSpace=wrap;html=1;fontSize=14;" vertex="1" parent="1">
          <mxGeometry x="481" y="70" width="399" height="130" as="geometry" />
        </mxCell>
        <mxCell id="zK-XE1m4WU7QKJRPk60D-53" value="画像codec" style="rounded=0;whiteSpace=wrap;html=1;fillColor=#f5f5f5;fontColor=#333333;strokeColor=#666666;flipH=1;flipV=1;" vertex="1" parent="1">
          <mxGeometry x="620" y="100" width="100" height="40" as="geometry" />
        </mxCell>
        <mxCell id="zK-XE1m4WU7QKJRPk60D-54" value="store元数据" style="rounded=0;whiteSpace=wrap;html=1;fillColor=#f5f5f5;fontColor=#333333;strokeColor=#666666;flipH=1;flipV=1;" vertex="1" parent="1">
          <mxGeometry x="496.58" y="100.23" width="100" height="40" as="geometry" />
        </mxCell>
        <mxCell id="zK-XE1m4WU7QKJRPk60D-55" value="source元数据" style="rounded=0;whiteSpace=wrap;html=1;fillColor=#f5f5f5;fontColor=#333333;strokeColor=#666666;flipH=1;flipV=1;" vertex="1" parent="1">
          <mxGeometry x="740" y="99.23" width="100" height="40" as="geometry" />
        </mxCell>
        <mxCell id="zK-XE1m4WU7QKJRPk60D-56" value="元数据" style="text;html=1;strokeColor=none;fillColor=none;align=center;verticalAlign=middle;whiteSpace=wrap;rounded=0;fontSize=14;" vertex="1" parent="1">
          <mxGeometry x="690" y="70" width="85" height="25" as="geometry" />
        </mxCell>
        <mxCell id="zK-XE1m4WU7QKJRPk60D-57" value="离线任务管理" style="rounded=0;whiteSpace=wrap;html=1;fillColor=#f5f5f5;fontColor=#333333;strokeColor=#666666;flipH=1;flipV=1;" vertex="1" parent="1">
          <mxGeometry x="668.5" y="150" width="171.5" height="40" as="geometry" />
        </mxCell>
        <mxCell id="zK-XE1m4WU7QKJRPk60D-61" value="自适应&lt;br&gt;导入" style="rounded=0;whiteSpace=wrap;html=1;fillColor=#f5f5f5;fontColor=#333333;strokeColor=#666666;flipH=1;flipV=1;" vertex="1" parent="1">
          <mxGeometry x="142" y="-82" width="200" height="40" as="geometry" />
        </mxCell>
        <mxCell id="zK-XE1m4WU7QKJRPk60D-62" value="自动上下线" style="rounded=0;whiteSpace=wrap;html=1;fillColor=#f5f5f5;fontColor=#333333;strokeColor=#666666;flipH=1;flipV=1;" vertex="1" parent="1">
          <mxGeometry x="351.00333333333333" y="-81.99923076923079" width="200" height="40" as="geometry" />
        </mxCell>
        <mxCell id="zK-XE1m4WU7QKJRPk60D-102" value="全链路监控" style="text;strokeColor=none;fillColor=none;align=left;verticalAlign=middle;spacingLeft=4;spacingRight=4;overflow=hidden;points=[[0,0.5],[1,0.5]];portConstraint=eastwest;rotatable=0;whiteSpace=wrap;html=1;dashed=1;fontSize=14;" vertex="1" parent="1">
          <mxGeometry x="308" y="-155" width="80" height="20" as="geometry" />
        </mxCell>
        <mxCell id="zK-XE1m4WU7QKJRPk60D-103" value="" style="endArrow=classic;html=1;rounded=0;fontSize=14;curved=1;exitX=0.75;exitY=1;exitDx=0;exitDy=0;entryX=0.5;entryY=0;entryDx=0;entryDy=0;dashed=1;" edge="1" parent="1" source="zK-XE1m4WU7QKJRPk60D-49" target="zK-XE1m4WU7QKJRPk60D-56">
          <mxGeometry width="50" height="50" relative="1" as="geometry">
            <mxPoint x="700" y="10" as="sourcePoint" />
            <mxPoint x="750" y="-40" as="targetPoint" />
          </mxGeometry>
        </mxCell>
        <mxCell id="zK-XE1m4WU7QKJRPk60D-104" value="统计指标" style="edgeLabel;html=1;align=center;verticalAlign=middle;resizable=0;points=[];fontSize=14;" vertex="1" connectable="0" parent="zK-XE1m4WU7QKJRPk60D-103">
          <mxGeometry x="-0.0168" relative="1" as="geometry">
            <mxPoint as="offset" />
          </mxGeometry>
        </mxCell>
        <mxCell id="zK-XE1m4WU7QKJRPk60D-105" value="" style="endArrow=classic;html=1;rounded=0;fontSize=14;entryX=0.5;entryY=1;entryDx=0;entryDy=0;" edge="1" parent="1" source="zK-XE1m4WU7QKJRPk60D-85" target="zK-XE1m4WU7QKJRPk60D-57">
          <mxGeometry width="50" height="50" relative="1" as="geometry">
            <mxPoint x="735.5" y="170" as="sourcePoint" />
            <mxPoint x="790" y="180" as="targetPoint" />
          </mxGeometry>
        </mxCell>
        <mxCell id="zK-XE1m4WU7QKJRPk60D-106" value="更新" style="edgeLabel;html=1;align=center;verticalAlign=middle;resizable=0;points=[];fontSize=14;" vertex="1" connectable="0" parent="zK-XE1m4WU7QKJRPk60D-105">
          <mxGeometry x="0.0672" y="-3" relative="1" as="geometry">
            <mxPoint as="offset" />
          </mxGeometry>
        </mxCell>
        <mxCell id="zK-XE1m4WU7QKJRPk60D-107" value="" style="endArrow=classic;html=1;rounded=0;fontSize=14;exitX=0;exitY=0.5;exitDx=0;exitDy=0;entryX=1;entryY=0.5;entryDx=0;entryDy=0;" edge="1" parent="1" source="zK-XE1m4WU7QKJRPk60D-54" target="zK-XE1m4WU7QKJRPk60D-1">
          <mxGeometry width="50" height="50" relative="1" as="geometry">
            <mxPoint x="735.5" y="170" as="sourcePoint" />
            <mxPoint x="733" y="300" as="targetPoint" />
          </mxGeometry>
        </mxCell>
        <mxCell id="zK-XE1m4WU7QKJRPk60D-108" value="读取" style="edgeLabel;html=1;align=center;verticalAlign=middle;resizable=0;points=[];fontSize=14;" vertex="1" connectable="0" parent="zK-XE1m4WU7QKJRPk60D-107">
          <mxGeometry x="0.0672" y="-3" relative="1" as="geometry">
            <mxPoint as="offset" />
          </mxGeometry>
        </mxCell>
        <mxCell id="zK-XE1m4WU7QKJRPk60D-114" value="" style="group" vertex="1" connectable="0" parent="1">
          <mxGeometry x="730" y="-155" width="60" height="95" as="geometry" />
        </mxCell>
        <mxCell id="zK-XE1m4WU7QKJRPk60D-110" value="" style="endArrow=classic;html=1;rounded=0;fontSize=14;" edge="1" parent="zK-XE1m4WU7QKJRPk60D-114">
          <mxGeometry width="50" height="50" relative="1" as="geometry">
            <mxPoint y="58" as="sourcePoint" />
            <mxPoint x="60" y="58" as="targetPoint" />
          </mxGeometry>
        </mxCell>
        <mxCell id="zK-XE1m4WU7QKJRPk60D-111" value="" style="endArrow=classic;html=1;rounded=0;fontSize=14;dashed=1;" edge="1" parent="zK-XE1m4WU7QKJRPk60D-114">
          <mxGeometry width="50" height="50" relative="1" as="geometry">
            <mxPoint y="35" as="sourcePoint" />
            <mxPoint x="60" y="35" as="targetPoint" />
          </mxGeometry>
        </mxCell>
        <mxCell id="zK-XE1m4WU7QKJRPk60D-112" value="&lt;b&gt;异步&lt;/b&gt;" style="text;html=1;strokeColor=none;fillColor=none;align=center;verticalAlign=middle;whiteSpace=wrap;rounded=0;dashed=1;fontSize=14;fontColor=#FF0000;" vertex="1" parent="zK-XE1m4WU7QKJRPk60D-114">
          <mxGeometry width="60" height="30" as="geometry" />
        </mxCell>
        <mxCell id="zK-XE1m4WU7QKJRPk60D-113" value="&lt;b&gt;同步&lt;/b&gt;" style="text;html=1;strokeColor=none;fillColor=none;align=center;verticalAlign=middle;whiteSpace=wrap;rounded=0;dashed=1;fontSize=14;fontColor=#FF0000;" vertex="1" parent="zK-XE1m4WU7QKJRPk60D-114">
          <mxGeometry y="65" width="60" height="30" as="geometry" />
        </mxCell>
        <mxCell id="zK-XE1m4WU7QKJRPk60D-115" value="上报端" style="rounded=0;whiteSpace=wrap;html=1;strokeColor=default;fontSize=14;fontColor=#000000;" vertex="1" parent="1">
          <mxGeometry x="-140" y="-142" width="120" height="52" as="geometry" />
        </mxCell>
        <mxCell id="zK-XE1m4WU7QKJRPk60D-116" value="画像挖掘" style="rounded=0;whiteSpace=wrap;html=1;strokeColor=default;fontSize=14;fontColor=#000000;" vertex="1" parent="1">
          <mxGeometry x="-140" y="-70" width="120" height="52" as="geometry" />
        </mxCell>
        <mxCell id="zK-XE1m4WU7QKJRPk60D-117" value="" style="endArrow=classic;html=1;rounded=0;fontSize=14;fontColor=#000000;exitX=1;exitY=0.5;exitDx=0;exitDy=0;entryX=0;entryY=0.25;entryDx=0;entryDy=0;" edge="1" parent="1" source="zK-XE1m4WU7QKJRPk60D-115" target="zK-XE1m4WU7QKJRPk60D-49">
          <mxGeometry width="50" height="50" relative="1" as="geometry">
            <mxPoint x="20" y="-150" as="sourcePoint" />
            <mxPoint x="70" y="-200" as="targetPoint" />
          </mxGeometry>
        </mxCell>
        <mxCell id="zK-XE1m4WU7QKJRPk60D-118" value="空值率" style="edgeLabel;html=1;align=center;verticalAlign=middle;resizable=0;points=[];fontSize=14;fontColor=#000000;" vertex="1" connectable="0" parent="zK-XE1m4WU7QKJRPk60D-117">
          <mxGeometry x="-0.1352" y="-2" relative="1" as="geometry">
            <mxPoint as="offset" />
          </mxGeometry>
        </mxCell>
        <mxCell id="zK-XE1m4WU7QKJRPk60D-119" value="" style="endArrow=classic;html=1;rounded=0;fontSize=14;fontColor=#000000;exitX=1;exitY=0.5;exitDx=0;exitDy=0;entryX=0;entryY=0.5;entryDx=0;entryDy=0;" edge="1" parent="1" source="zK-XE1m4WU7QKJRPk60D-116" target="zK-XE1m4WU7QKJRPk60D-49">
          <mxGeometry width="50" height="50" relative="1" as="geometry">
            <mxPoint x="-10" y="-106" as="sourcePoint" />
            <mxPoint x="120" y="-80" as="targetPoint" />
          </mxGeometry>
        </mxCell>
        <mxCell id="zK-XE1m4WU7QKJRPk60D-120" value="任务完成时间" style="edgeLabel;html=1;align=center;verticalAlign=middle;resizable=0;points=[];fontSize=14;fontColor=#000000;" vertex="1" connectable="0" parent="zK-XE1m4WU7QKJRPk60D-119">
          <mxGeometry x="-0.1352" y="-2" relative="1" as="geometry">
            <mxPoint as="offset" />
          </mxGeometry>
        </mxCell>
        <mxCell id="zK-XE1m4WU7QKJRPk60D-121" value="画像血缘" style="rounded=0;whiteSpace=wrap;html=1;fillColor=#f5f5f5;fontColor=#333333;strokeColor=#666666;flipH=1;flipV=1;" vertex="1" parent="1">
          <mxGeometry x="496" y="148" width="164" height="42" as="geometry" />
        </mxCell>
      </root>
    </mxGraphModel>
  </diagram>
</mxfile>
